<svg xmlns="http://www.w3.org/2000/svg" viewBox="0 0 100 100">
  <defs>
    <linearGradient id="sky" x1="0" y1="0" x2="0" y2="1">
      <stop offset="0" stop-color="#79C2F2"/>
      <stop offset=".5" stop-color="#B7E3FB"/>
      <stop offset="1" stop-color="#FFF1DD"/>
    </linearGradient>
    <linearGradient id="hillBack" x1="0" y1="0" x2="0" y2="1">
      <stop offset="0" stop-color="#C4EFA6"/>
      <stop offset="1" stop-color="#9ADB84"/>
    </linearGradient>
    <linearGradient id="hillFront" x1="0" y1="0" x2="0" y2="1">
      <stop offset="0" stop-color="#8CD97A"/>
      <stop offset="1" stop-color="#4FB262"/>
    </linearGradient>
    <radialGradient id="sunGlow" cx=".5" cy=".5" r=".5">
      <stop offset="0" stop-color="#FFE9A0" stop-opacity=".85"/>
      <stop offset="1" stop-color="#FFE9A0" stop-opacity="0"/>
    </radialGradient>
    <radialGradient id="sunBody" cx=".4" cy=".35" r=".8">
      <stop offset="0" stop-color="#FFF7CE"/>
      <stop offset=".65" stop-color="#FFDE73"/>
      <stop offset="1" stop-color="#FFC24A"/>
    </radialGradient>
    <linearGradient id="winGlow" x1="0" y1="0" x2="0" y2="1">
      <stop offset="0" stop-color="#FFF4C1"/>
      <stop offset="1" stop-color="#FFC85C"/>
    </linearGradient>
    <linearGradient id="heartG" x1="0" y1="0" x2="0" y2="1">
      <stop offset="0" stop-color="#FFB3CD"/>
      <stop offset="1" stop-color="#FF6FA0"/>
    </linearGradient>
    <clipPath id="frame"><rect x="1" y="1" width="98" height="98" rx="22"/></clipPath>
    <path id="tuft" d="M0 0Q.3-3 1-3.2 1.6-1.5 1.4 0zM2 0Q2.3-2.2 3-2.4 3.5-1 3.3 0zM4 0Q4.3-2.8 5-3 5.5-1.2 5.3 0z"/>
    <path id="sp" d="M0 -2.2L.55 -.55L2.2 0L.55 .55L0 2.2L-.55 .55L-2.2 0L-.55 -.55Z"/>
  </defs>

  <g clip-path="url(#frame)">
    <rect width="100" height="100" fill="url(#sky)"/>

    <!-- 太阳 -->
    <circle cx="81" cy="19" r="15" fill="url(#sunGlow)"/>
    <g fill="#FFCF54">
      <path d="M81 5.5L79.7 9.5L82.3 9.5Z"/><path d="M81 32.5L79.7 28.5L82.3 28.5Z"/>
      <path d="M67.5 19L71.5 17.7L71.5 20.3Z"/><path d="M94.5 19L90.5 17.7L90.5 20.3Z"/>
      <path d="M90.5 9.5L88.6 11.4L86.8 13.2Z"/><path d="M71.5 9.5L73.4 11.4L75.2 13.2Z"/>
      <path d="M90.5 28.5L88.6 26.6L86.8 24.8Z"/><path d="M71.5 28.5L73.4 26.6L75.2 24.8Z"/>
    </g>
    <circle cx="81" cy="19" r="7.5" fill="url(#sunBody)" stroke="#4A3F63" stroke-width="1.2"/>
    <g fill="none" stroke="#4A3F63" stroke-linecap="round">
      <path d="M77.5 18.3q1.15-1.5 2.3 0M82.2 18.3q1.15-1.5 2.3 0" stroke-width="1"/>
      <path d="M79.7 21.3q1.3 1.2 2.6 0" stroke-width="1"/>
    </g>
    <circle cx="76.4" cy="20.8" r="1.3" fill="#FF9E8A" opacity=".6"/>
    <circle cx="85.6" cy="20.8" r="1.3" fill="#FF9E8A" opacity=".6"/>

    <!-- 云 -->
    <g fill="#FFFFFF" stroke="#4A3F63" stroke-width="1" stroke-linejoin="round">
      <path d="M11.5 20.5q-1-4.6 3.6-5.2 1-4.4 5.6-3.7 4.2.7 4.7 3.9 4.7.4 4.3 4.7-.1.9-1 .9H12.6q-.9 0-1.1-.6z"/>
      <path d="M50 14.5q-.7-3.4 2.7-3.9.8-3.3 4.2-2.7 3.1.5 3.5 2.9 3.5.3 3.2 3.5-.1.7-.8.7h-12q-.7 0-.8-.5z"/>
    </g>
    <g fill="none" stroke="#BFD9EE" stroke-width=".9" stroke-linecap="round" opacity=".85">
      <path d="M15 18.5q3 1.2 6 .6M22 19.3q2.6.4 4.6-.4M53 12.8q2.4.9 4.8.3"/>
    </g>
    <g fill="#FFFFFF" opacity=".55">
      <circle cx="39" cy="10.5" r="2.2"/><circle cx="42.5" cy="9.8" r="2.8"/><circle cx="46" cy="10.8" r="2"/>
      <rect x="37.5" y="10.5" width="11" height="2.6" rx="1.3"/>
    </g>

    <!-- 小鸟 -->
    <g fill="none" stroke="#4A3F63" stroke-width=".9" stroke-linecap="round">
      <path d="M43 24q1.8-2 3.6 0 1.8-2 3.6 0"/>
      <path d="M52 19.5q1.4-1.6 2.8 0 1.4-1.6 2.8 0"/>
    </g>

    <!-- 远山和远处小树 -->
    <path d="M0 74c25-5 55 3 100-3v30H0z" fill="url(#hillBack)"/>
    <g>
      <rect x="4.1" y="69.8" width="1" height="3.8" fill="#7FA86F"/>
      <circle cx="4.6" cy="69" r="2.1" fill="#7CC487"/>
      <rect x="37" y="69.3" width="1" height="3.8" fill="#7FA86F"/>
      <circle cx="37.5" cy="68.5" r="2.1" fill="#7CC487"/>
      <rect x="91.5" y="68.3" width="1" height="3.8" fill="#7FA86F"/>
      <circle cx="92" cy="67.5" r="2.1" fill="#7CC487"/>
    </g>

    <!-- 近草地 -->
    <path d="M0 81c18-6 36 4 55-1 17-4 31 3 45-1v22H0z" fill="url(#hillFront)"/>

    <!-- 大树 -->
    <path d="M8.7 82q-.4-7.5.1-12.5l2.9-.1q.7 5.2.3 12.6z" fill="#A9714B" stroke="#4A3F63" stroke-width="1.1"/>
    <path d="M10.6 69.5q.6 5.2.3 12.4h1.1q.4-7.4-.3-12.5z" fill="#8E5A3A"/>
    <g>
      <circle cx="6.8" cy="61" r="4.3" fill="#4AA357"/><circle cx="16" cy="61" r="4.3" fill="#4AA357"/><circle cx="11.4" cy="56.7" r="6.2" fill="#4AA357"/>
      <circle cx="5.6" cy="59.8" r="4.3" fill="#66C46A"/><circle cx="14.8" cy="59.8" r="4.3" fill="#66C46A"/><circle cx="10.2" cy="55.5" r="6.2" fill="#66C46A" stroke="#4A3F63" stroke-width="1.1"/>
      <circle cx="5.6" cy="59.8" r="4.3" fill="none" stroke="#4A3F63" stroke-width="1.1"/>
      <circle cx="14.8" cy="59.8" r="4.3" fill="none" stroke="#4A3F63" stroke-width="1.1"/>
      <circle cx="7.8" cy="52.6" r="1.1" fill="#A9E98C" opacity=".9"/>
      <circle cx="10.6" cy="51.4" r=".9" fill="#A9E98C" opacity=".9"/>
      <circle cx="6.4" cy="56" r=".8" fill="#A9E98C" opacity=".9"/>
    </g>

    <!-- 房子 左 -->
    <g stroke="#4A3F63" stroke-width="1.2" stroke-linejoin="round">
      <path d="M12 62Q23.5 44 35 62L31.8 62Q23.5 49.8 15.2 62Z" fill="#E8604E"/>
      <path d="M12 62Q23.5 44 35 62z" fill="#FF8A70"/>
      <path d="M16.5 56.5Q23.5 47 30.5 56.5" fill="none" stroke="#FFCDBD" stroke-width="1" opacity=".85"/>
      <rect x="15" y="58" width="17" height="24" rx="2" fill="#FFF8EC"/>
      <rect x="29" y="59.5" width="2.6" height="22.5" fill="#F2E2C8" stroke="none"/>
      <rect x="19" y="63" width="5" height="5" rx="1" fill="url(#winGlow)"/>
      <path d="M21.5 63v5M19 65.5h5" fill="none" stroke-width=".8"/>
      <path d="M20 63.5L23.4 66.9" fill="none" stroke="#FFFFFF" stroke-width=".8" stroke-linecap="round" opacity=".8"/>
      <path d="M24.5 82V73.5Q24.5 70 27.75 70Q31 70 31 73.5V82z" fill="#C99B6E"/>
      <path d="M26.2 71.2V81.4M29.3 71.2V81.4" fill="none" stroke="#A87B52" stroke-width=".6" opacity=".8"/>
      <circle cx="29.6" cy="76.5" r=".55" fill="#4A3F63" stroke="none"/>
    </g>

    <!-- 房子 中 -->
    <g stroke="#4A3F63" stroke-width="1.2" stroke-linejoin="round">
      <path d="M36 54Q53 30 70 54L65.6 54Q53 37.6 40.4 54Z" fill="#E14D44"/>
      <path d="M36 54Q53 30 70 54z" fill="#FF6F61"/>
      <path d="M43.5 45.5Q53 34 62.5 45.5" fill="none" stroke="#FFB9AC" stroke-width="1" opacity=".85"/>
      <rect x="59" y="36.5" width="4.5" height="10.5" fill="#D84840"/>
      <rect x="57.9" y="34.6" width="6.7" height="2.6" rx="1" fill="#B83A34"/>
      <rect x="42" y="50" width="22" height="32" rx="2" fill="#FFF4DE"/>
      <rect x="60.2" y="51.5" width="3.3" height="30.5" fill="#EFDCBB" stroke="none"/>
      <g fill="url(#winGlow)">
        <rect x="45.5" y="55" width="5" height="5" rx="1"/>
        <rect x="56" y="55" width="5" height="5" rx="1"/>
        <rect x="43.5" y="64" width="4.5" height="5" rx="1"/>
        <rect x="58" y="64" width="4.5" height="5" rx="1"/>
      </g>
      <g fill="none" stroke-width=".8">
        <path d="M48 55v5M45.5 57.5h5M58.5 55v5M56 57.5h5M45.75 64v5M43.5 66.5h4.5M60.25 64v5M58 66.5h4.5"/>
      </g>
      <g fill="none" stroke="#FFFFFF" stroke-width=".8" stroke-linecap="round" opacity=".8">
        <path d="M46.6 55.4L49.9 58.7M57.1 55.4L60.4 58.7M44.5 64.4L47.4 67.3M59 64.4L61.9 67.3"/>
      </g>
      <path d="M48.5 82V73.5Q48.5 70 53 70Q57.5 70 57.5 73.5V82z" fill="#C99B6E"/>
      <path d="M50.6 71.2V81.6M55.4 71.2V81.6" fill="none" stroke="#A87B52" stroke-width=".6" opacity=".8"/>
      <circle cx="55.6" cy="76.5" r=".55" fill="#4A3F63" stroke="none"/>
    </g>
    <g fill="#FFFFFF" stroke="#4A3F63" stroke-width=".8">
      <circle cx="64.3" cy="31" r="1.6" opacity=".8"/>
      <circle cx="66.3" cy="26.8" r="2" opacity=".65"/>
      <circle cx="67.8" cy="22.6" r="2.3" opacity=".5"/>
    </g>

    <!-- 房子 右 -->
    <g stroke="#4A3F63" stroke-width="1.2" stroke-linejoin="round">
      <path d="M68.5 68Q78 54 87.5 68L84.6 68Q78 58.6 71.4 68Z" fill="#E8604E"/>
      <path d="M68.5 68Q78 54 87.5 68z" fill="#FF8A70"/>
      <path d="M72.5 63.5Q78 56.5 83.5 63.5" fill="none" stroke="#FFCDBD" stroke-width="1" opacity=".85"/>
      <rect x="71" y="64" width="14" height="18" rx="2" fill="#FFF8EC"/>
      <rect x="82.2" y="65.5" width="2.4" height="16.5" fill="#F2E2C8" stroke="none"/>
      <rect x="74.5" y="68" width="5" height="5" rx="1" fill="url(#winGlow)"/>
      <path d="M77 68v5M74.5 70.5h5" fill="none" stroke-width=".8"/>
      <path d="M75.5 68.4L78.9 71.8" fill="none" stroke="#FFFFFF" stroke-width=".8" stroke-linecap="round" opacity=".8"/>
      <path d="M76 82V77Q76 74.5 78.25 74.5Q80.5 74.5 80.5 77V82z" fill="#C99B6E"/>
    </g>

    <!-- 灌木 -->
    <circle cx="91.6" cy="78.6" r="3.4" fill="#4AA357"/>
    <circle cx="95.6" cy="79.6" r="2.6" fill="#4AA357"/>
    <circle cx="90.5" cy="77.5" r="3.4" fill="#66C46A" stroke="#4A3F63" stroke-width="1.1"/>
    <circle cx="94.5" cy="78.5" r="2.6" fill="#66C46A" stroke="#4A3F63" stroke-width="1.1"/>
    <circle cx="89.6" cy="76.2" r=".8" fill="#A9E98C" opacity=".9"/>
    <circle cx="93.2" cy="76.8" r=".7" fill="#FF9FC0" stroke="#4A3F63" stroke-width=".5"/>

    <!-- 草丛 -->
    <g>
      <use href="#tuft" x="26" y="89" fill="#3F9E52"/>
      <use href="#tuft" x="38" y="84.5" fill="#2F8A44" transform="scale(1)"/>
      <use href="#tuft" x="55" y="91" fill="#3F9E52"/>
      <use href="#tuft" x="70" y="86.5" fill="#2F8A44"/>
      <use href="#tuft" x="88" y="93" fill="#3F9E52"/>
      <use href="#tuft" x="13" y="85" fill="#2F8A44"/>
    </g>

    <!-- 花朵 -->
    <g stroke="#3F7D4C" stroke-width=".9" stroke-linecap="round">
      <path d="M36.5 86.5V84.5M88.5 88V85.5" fill="none"/>
    </g>
    <g transform="translate(36.5 83)">
      <g fill="#FF9FC0" stroke="#4A3F63" stroke-width=".7">
        <ellipse cx="0" cy="-1.7" rx=".9" ry="1.5"/>
        <ellipse cx="0" cy="-1.7" rx=".9" ry="1.5" transform="rotate(72)"/>
        <ellipse cx="0" cy="-1.7" rx=".9" ry="1.5" transform="rotate(144)"/>
        <ellipse cx="0" cy="-1.7" rx=".9" ry="1.5" transform="rotate(216)"/>
        <ellipse cx="0" cy="-1.7" rx=".9" ry="1.5" transform="rotate(288)"/>
      </g>
      <circle r=".9" fill="#FFD75E" stroke="#4A3F63" stroke-width=".6"/>
    </g>
    <g transform="translate(88.5 84)">
      <g fill="#FFFFFF" stroke="#4A3F63" stroke-width=".7">
        <ellipse cx="0" cy="-1.7" rx=".9" ry="1.5"/>
        <ellipse cx="0" cy="-1.7" rx=".9" ry="1.5" transform="rotate(72)"/>
        <ellipse cx="0" cy="-1.7" rx=".9" ry="1.5" transform="rotate(144)"/>
        <ellipse cx="0" cy="-1.7" rx=".9" ry="1.5" transform="rotate(216)"/>
        <ellipse cx="0" cy="-1.7" rx=".9" ry="1.5" transform="rotate(288)"/>
      </g>
      <circle r=".9" fill="#FF9FC0" stroke="#4A3F63" stroke-width=".6"/>
    </g>
    <g stroke="#4A3F63" stroke-width=".7">
      <circle cx="45" cy="85.5" r="1.3" fill="#FFD75E"/>
      <circle cx="63" cy="87.5" r="1.3" fill="#FF9FC0"/>
      <circle cx="30" cy="93" r="1.1" fill="#FFFFFF"/>
      <circle cx="72" cy="94" r="1.1" fill="#FFD75E"/>
    </g>

    <!-- 爱心 -->
    <path d="M30 34.5c0-3.6-4.2-5.2-5.8-2.6-1.1 1.9.2 4.3 2.3 6.1l3.5 3 3.5-3c2.1-1.8 3.4-4.2 2.3-6.1-1.6-2.6-5.8-1-5.8 2.6z" fill="url(#heartG)" stroke="#4A3F63" stroke-width="1.2" stroke-linejoin="round"/>
    <path d="M25.5 36.8Q30 40 34.5 36.8" fill="none" stroke="#E85D8F" stroke-width="1" opacity=".5"/>
    <ellipse cx="26.4" cy="32.6" rx="1.2" ry="1.9" fill="#FFFFFF" opacity=".9" transform="rotate(-28 26.4 32.6)"/>
    <circle cx="29.2" cy="31.2" r=".5" fill="#FFFFFF" opacity=".8"/>

    <!-- 飘落花瓣 -->
    <g fill="#FFB7CE" opacity=".85">
      <ellipse cx="37.5" cy="38.5" rx="1" ry=".55" transform="rotate(30 37.5 38.5)"/>
      <ellipse cx="21.5" cy="41" rx=".9" ry=".5" transform="rotate(-20 21.5 41)"/>
      <ellipse cx="24" cy="45.5" rx=".9" ry=".5" transform="rotate(15 24 45.5)"/>
    </g>

    <!-- 星光 -->
    <g>
      <use href="#sp" x="40" y="23" fill="#FFD75E"/>
      <use href="#sp" x="19.5" y="26.5" fill="#FFD75E" opacity=".9" transform="translate(0 0)"/>
      <use href="#sp" x="35.5" y="28.5" fill="#FFFFFF" opacity=".95"/>
      <use href="#sp" x="73" y="10" fill="#FFFFFF" opacity=".9"/>
      <use href="#sp" x="88" y="30" fill="#FFFFFF" opacity=".85"/>
    </g>
  </g>

  <rect x="3.6" y="3.6" width="92.8" height="92.8" rx="19" fill="none" stroke="#4A3F63" stroke-width=".7" opacity=".3"/>
  <rect x="1" y="1" width="98" height="98" rx="22" fill="none" stroke="#4A3F63" stroke-width="2"/>
</svg>
